<?xml version="1.0" standalone="no"?>
<!DOCTYPE svg PUBLIC "-//W3C//DTD SVG 20010904//EN"
 "http://www.w3.org/TR/2001/REC-SVG-20010904/DTD/svg10.dtd">
<svg version="1.0" xmlns="http://www.w3.org/2000/svg"
 width="900.000000pt" height="900.000000pt" viewBox="0 0 900.000000 900.000000"
 preserveAspectRatio="xMidYMid meet">
<metadata>
Created by potrace 1.10, written by Peter Selinger 2001-2011
</metadata>
<g transform="translate(0.000000,900.000000) scale(0.100000,-0.100000)"
fill="#000000" stroke="none">
<path d="M1744 6799 c-53 -15 -127 -72 -161 -122 -67 -101 -63 38 -63 -1988 0
-1807 0 -1838 19 -1849 14 -7 963 -10 2994 -10 2481 0 2976 2 2986 13 15 19
16 3695 1 3749 -25 88 -120 183 -208 208 -48 13 -5523 12 -5568 -1z m5255
-452 c13 -6 34 -25 45 -40 l21 -28 3 -1422 c2 -983 0 -1433 -8 -1459 -6 -20
-24 -48 -41 -62 l-31 -26 -2474 0 -2474 0 -38 34 -37 34 0 1450 0 1451 21 28
c11 15 32 34 45 40 35 18 4933 18 4968 0z"/>
<path d="M4265 6180 c-319 -69 -571 -226 -787 -491 -21 -25 -38 -49 -38 -52 0
-3 -13 -25 -29 -49 -28 -41 -79 -141 -106 -203 -6 -16 -20 -47 -29 -68 -9 -21
-16 -45 -16 -55 0 -9 -6 -34 -14 -57 -24 -67 -40 -204 -38 -325 2 -202 41
-384 118 -545 13 -29 24 -55 24 -58 0 -14 97 -166 150 -237 79 -104 204 -228
319 -314 53 -40 103 -75 111 -79 8 -4 29 -16 45 -26 53 -34 214 -110 260 -122
232 -63 333 -79 498 -79 194 0 377 32 425 73 15 14 22 32 22 55 0 68 -66 89
-178 55 -46 -14 -99 -17 -282 -17 -205 0 -233 2 -310 23 -47 13 -89 27 -95 32
-5 5 -18 9 -28 9 -10 0 -31 6 -45 14 -15 7 -58 28 -97 47 -199 95 -376 241
-509 419 -87 118 -86 115 -140 225 -84 169 -114 286 -122 470 -11 240 14 366
114 574 106 220 300 420 504 518 117 56 157 73 173 73 8 0 29 6 47 14 18 8 86
22 150 32 119 18 202 15 373 -14 64 -11 189 -51 225 -73 8 -5 22 -12 30 -15 8
-3 22 -10 30 -15 8 -5 24 -13 36 -18 121 -53 337 -266 414 -407 11 -21 25 -46
30 -54 21 -36 70 -151 70 -166 0 -8 5 -25 12 -37 17 -33 40 -174 40 -257 2
-133 -32 -280 -93 -405 -38 -79 -44 -87 -113 -175 -86 -108 -166 -172 -296
-236 -161 -78 -193 -86 -369 -91 -187 -6 -238 5 -416 88 -172 81 -321 234
-409 423 -46 98 -58 154 -63 291 -5 148 5 199 66 325 44 92 175 229 261 274
153 79 292 102 430 72 143 -32 233 -79 326 -171 100 -98 150 -190 182 -332 45
-201 -76 -396 -296 -477 -160 -59 -387 35 -467 195 -34 66 -35 174 -3 222 37
57 84 82 156 81 53 0 66 -4 90 -27 15 -14 35 -48 44 -75 19 -53 61 -85 99 -75
22 6 69 58 69 77 0 18 -34 108 -55 141 -30 50 -98 95 -170 113 -114 27 -235
-8 -320 -94 -148 -147 -130 -401 39 -561 90 -85 111 -98 244 -147 30 -11 77
-16 158 -16 121 0 195 17 266 60 18 11 43 24 55 29 11 5 53 41 91 80 109 109
172 255 172 401 0 171 -103 395 -242 526 -45 42 -180 134 -197 134 -5 0 -22 6
-38 14 -57 29 -110 44 -211 62 -97 17 -107 17 -205 0 -56 -10 -127 -26 -157
-36 -181 -62 -358 -205 -439 -355 -12 -22 -26 -47 -30 -55 -37 -65 -62 -145
-78 -250 -12 -78 -12 -114 -2 -205 6 -60 18 -125 25 -144 8 -18 14 -40 14 -48
0 -27 93 -208 138 -268 81 -108 257 -275 290 -275 5 0 15 -7 22 -15 7 -8 19
-15 28 -15 8 0 23 -6 31 -13 19 -16 87 -44 211 -86 19 -7 94 -18 165 -26 157
-16 278 -4 420 43 173 58 305 141 439 277 79 81 137 163 186 265 12 25 25 53
30 62 16 29 46 130 65 213 30 139 13 393 -35 535 -19 53 -64 160 -81 190 -4 8
-18 35 -30 58 -33 65 -134 200 -198 262 -61 60 -194 170 -205 170 -4 0 -22 11
-39 24 -18 14 -43 29 -57 35 -14 6 -32 15 -40 20 -8 4 -31 15 -50 23 -19 8
-52 23 -73 32 -21 9 -44 16 -52 16 -8 0 -29 6 -47 14 -112 47 -432 61 -593 26z"/>
<path d="M930 2626 c-8 -11 -11 -59 -8 -165 3 -148 3 -150 33 -193 17 -23 49
-53 70 -65 l40 -23 3423 0 c3345 0 3424 0 3460 19 47 24 77 56 97 103 19 47
22 307 3 326 -9 9 -353 12 -1487 12 -812 0 -1486 -3 -1498 -6 -14 -4 -24 -17
-28 -36 -8 -35 -57 -93 -96 -114 -42 -21 -856 -21 -898 0 -34 18 -91 81 -91
101 0 8 -9 24 -20 35 -20 20 -33 20 -1504 20 -1279 0 -1485 -2 -1496 -14z"/>
</g>
</svg>
